<svg version="1.1" xmlns="http://www.w3.org/2000/svg" xmlns:xlink="http://www.w3.org/1999/xlink" width="187.93876" height="137.18036" viewBox="0,0,187.93876,137.18036"><g transform="translate(-219.25,-59.31964)"><g data-paper-data="{&quot;isPaintingLayer&quot;:true}" fill="none" fill-rule="nonzero" stroke-width="3" stroke-linecap="butt" stroke-linejoin="miter" stroke-miterlimit="10" stroke-dasharray="" stroke-dashoffset="0" style="mix-blend-mode: normal"><path d="M269.75,195v-38h44v38z" stroke="#001026"/><path d="M337.92369,96.41024l29.09947,-34.97815l38.05315,31.65766l-29.09947,34.97815z" stroke="#001026"/><path d="M318.75,121c0,11.59798 -9.06623,21 -20.25,21c-11.18377,0 -20.25,-9.40202 -20.25,-21c0,-11.59798 9.06623,-21 20.25,-21c11.18377,0 20.25,9.40202 20.25,21z" stroke="#001026"/><path d="M345.75,156.75c0,-12.01219 9.96166,-21.75 22.25,-21.75c12.28834,0 22.25,9.73781 22.25,21.75c0,12.01219 -9.96166,21.75 -22.25,21.75c-12.28834,0 -22.25,-9.73781 -22.25,-21.75z" stroke="#001026"/><path d="M261.25,173.5c0,11.59798 -9.06624,21 -20.25,21c-11.18376,0 -20.25,-9.40202 -20.25,-21c0,-11.59798 9.06624,-21 20.25,-21c11.18376,0 20.25,9.40202 20.25,21z" stroke="#001026"/></g></g></svg>